<?xml version="1.0" standalone="no"?><!DOCTYPE svg PUBLIC "-//W3C//DTD SVG 1.1//EN" "http://www.w3.org/Graphics/SVG/1.1/DTD/svg11.dtd"><svg width="100%" height="100%" viewBox="0 0 464 527" version="1.1" xmlns="http://www.w3.org/2000/svg" xmlns:xlink="http://www.w3.org/1999/xlink" xml:space="preserve" style="fill-rule:evenodd;clip-rule:evenodd;stroke-linecap:round;stroke-linejoin:round;stroke-miterlimit:1.41421;"><g><g><path d="M230.765,464c0,0 -2.346,28.814 -16,33c-13.655,4.186 -32.386,-2.055 -38,-2c-5.614,0.055 -20.349,-2.972 -25,-5c-4.652,-2.028 -15.129,-10.014 -21,-14c-5.872,-3.986 -23.356,-10.24 -31,-18c-7.644,-7.76 -22.703,-26.746 -29,-32c-6.297,-5.254 -16.286,-18.124 -19,-25c-2.714,-6.876 -2.141,-13.315 -4,-18c-1.859,-4.685 -8.909,-5.848 -10,-16c-1.091,-10.152 -7.241,-23.26 -5,-37c2.241,-13.74 4.981,-15.073 4,-25c-0.981,-9.927 -3.885,-19.531 -2,-26c1.885,-6.469 7.092,-13.802 7,-19c-0.092,-5.198 3.917,-24.644 8,-33c4.083,-8.356 5,-9.268 6,-14c1,-4.732 -0.232,-15.613 7,-27c7.232,-11.387 15.814,-17.659 17,-24c1.186,-6.341 1.24,-17.946 6,-26c4.76,-8.054 11.805,-12.31 12,-18c0.194,-5.69 8.228,-22.216 17,-32c8.771,-9.784 14.842,-16.713 25,-24c10.157,-7.287 21.853,-11.946 31,-17c9.146,-5.054 11.253,-6.186 17,-6c5.746,0.186 17.141,-3.243 24,0c6.859,3.243 13.507,12.718 17,25c3.492,12.282 5.745,33.685 5,41c-0.745,7.315 0.955,41.843 0,55c-0.955,13.157 -1.114,69.933 0,88c1.114,18.067 -2.176,51.61 -1.5,67c0.676,15.39 -2.873,42.253 -2.5,58c0.372,15.747 1,91 1,91Z" style="fill:none;stroke-width:5.5px;stroke:#fff;"/><path d="M233.765,95c0,0 -2.222,-29.16 4,-44c6.221,-14.84 14.772,-15.893 22,-15c7.228,0.893 21.062,3.797 29,8c7.938,4.203 13.565,11.267 22,17c8.434,5.733 18.901,10.026 29,17c10.098,6.974 14.826,14.12 19,21c4.174,6.88 4.369,11.01 7,16c2.631,4.99 9.757,7.666 13,18c3.242,10.334 3.572,14.206 6,21c2.428,6.794 8.123,8.626 13,19c4.877,10.374 3.585,17.755 8,25c4.414,7.245 8.654,12.289 10,21c1.346,8.711 0.276,15.039 4,22c3.724,6.961 7.72,18.512 8,26.022c0.279,7.511 -3,21.978 -3,21.978c0,0 7.79,12.098 8,22c0.209,9.902 2.66,14.395 2,20c-0.66,5.605 -5,16 -5,16c0,0 1.109,15.49 -1,22c-2.109,6.51 -6.055,21.283 -14,35c-7.945,13.717 -17.656,29.196 -23,34c-5.345,4.804 -11.803,10.564 -13,13c-1.197,2.436 -9.643,15.625 -17,21c-7.357,5.375 -13.638,3.943 -17,7c-3.363,3.057 -20.523,11.505 -33,15c-12.478,3.495 -21.879,5.783 -34,6c-12.121,0.217 -27.56,-3.217 -33,-8c-5.44,-4.783 -9.568,-5.552 -11,-11c-1.433,-5.448 -3,-22 -3,-22" style="fill:none;stroke-width:5.5px;stroke:#fff;"/></g><g><path d="M96.765,123c0,0 13.863,-6.064 19,-1c5.137,5.064 10.673,10.306 14,11c3.327,0.694 12.043,0.9 12,7c-0.043,6.1 3.222,11.564 -1,16c-4.222,4.436 -12.876,6.227 -11,12c1.875,5.773 3.277,17.27 -2.228,18" style="fill:none;stroke-width:4px;stroke:#fff;"/><path d="M90.765,131c0,0 -3.549,8.803 0,16c3.549,7.197 7.361,6.491 8,10c0.639,3.509 -3.019,3.575 -3,7c0.018,3.425 4,5 4,5c0,0 -5.685,-0.926 -10,1c-4.315,1.926 -12.183,8.297 -14,15c-1.817,6.703 -3.494,19.724 1,24c4.494,4.276 13.774,14.963 23,16c9.225,1.037 16.251,4.214 19,8c2.749,3.786 6.262,13.047 10,15c3.738,1.953 11,1 11,1c0,0 13.574,-4.235 20,0c6.426,4.235 12.392,13.755 2,24" style="fill:none;stroke-width:4px;stroke:#fff;"/><path d="M55.765,211c0,0 5.934,-1.931 10,-1c4.065,0.931 7,0 7,0c0,0 -12.378,14.699 -11,21c1.378,6.301 -5,9 -5,9" style="fill:none;stroke-width:4px;stroke:#fff;"/><path d="M93.765,223c0,0 2.549,6.676 0,10" style="fill:none;stroke-width:4px;stroke:#fff;"/><path d="M124.765,245c0,0 2.867,10.819 -1,15c-3.867,4.181 -8,11 -8,11" style="fill:none;stroke-width:4px;stroke:#fff;"/><path d="M49.765,282c0,0 -10.424,-10.33 -8,-18c2.424,-7.67 19.506,-19.275 26,-14.767c6.494,4.507 12.128,12.4 16,15.767c3.872,3.367 15.067,10.098 15,17c-0.067,6.902 1.89,17.945 10,29c8.11,11.055 13.82,20.252 20,18c6.18,-2.252 24.349,-14.234 36,-11c11.65,3.234 14.387,5.25 17,11c2.613,5.75 5.667,20.818 13,20c7.332,-0.818 15.705,-7.499 23,-7c7.295,0.499 13,0 13,0" style="fill:none;stroke-width:4px;stroke:#fff;"/><path d="M194.765,349.032c0,0 -2.681,8.738 -11,10.968" style="fill:none;stroke-width:4px;stroke:#fff;"/><path d="M75.765,275c0,0 -0.209,9.885 4,17c4.209,7.115 8.544,5.388 11,13c2.455,7.612 0.104,25.389 11,30c10.896,4.611 16.321,5.681 19.011,9c2.69,3.319 9.729,7.53 15.306,3c5.577,-4.53 5.811,-10.764 12.683,-14c6.872,-3.236 20,-13 20,-13" style="fill:none;stroke-width:4px;stroke:#fff;"/><path d="M58.765,268.022c0,0 4.489,2.191 5,6.978c0.511,4.787 -4.063,16.019 -1,27c3.063,10.981 11.028,14.118 12.998,23c1.97,8.882 6.883,30.006 21.002,35c14.118,4.994 14.035,3.966 25.499,5c11.464,1.034 13.093,5.785 21.501,2c8.407,-3.785 13.603,-3.013 14,-7c0.397,-3.987 -1.748,-8.984 2,-15" style="fill:none;stroke-width:4px;stroke:#fff;"/><path d="M45.765,295c0,0 5.929,12.112 17,11" style="fill:none;stroke-width:4px;stroke:#fff;"/><path d="M34.765,348.98c0,0 8.159,8.66 17,11.02c8.841,2.36 3.598,-0.821 11,5c7.401,5.821 9.574,12.516 18,11c8.425,-1.516 15.57,-7.771 16,-15" style="fill:none;stroke-width:4px;stroke:#fff;"/><path d="M94.765,368.441c0,0 -5.675,15.17 2,19.559c7.674,4.389 17,12 17,12" style="fill:none;stroke-width:4px;stroke:#fff;"/><path d="M70.765,384.22c0,0 14.795,-2.821 13,15.78c-1.796,18.601 13.217,27.31 13,13c-0.218,-14.31 15,2 15,2c0,0 -6.164,9.685 0,14c6.164,4.315 13.679,8.157 20,5c6.32,-3.157 15,-8 15,-8" style="fill:none;stroke-width:4px;stroke:#fff;"/><path d="M123.765,435.132c0,0 2.045,8.484 14,11.868c11.955,3.384 19.621,-1.313 23,7c3.379,8.313 4.834,18.132 -10,33" style="fill:none;stroke-width:4px;stroke:#fff;"/><path d="M100.765,456c0,0 18.838,0.754 27,5.066c8.161,4.312 5.108,13.657 8,17.934" style="fill:none;stroke-width:4px;stroke:#fff;"/><path d="M114.765,431c0,0 -1.706,-1.267 -4,-1c-1.244,0.145 -2.915,1.564 -4,2" style="fill:none;stroke-width:4px;stroke:#fff;"/><path d="M114.765,378c0,0 9.315,-2.361 15,6.22c5.685,8.582 7.122,16.938 3.406,28.78" style="fill:none;stroke-width:4px;stroke:#fff;"/><path d="M135.225,399c0,0 12.55,0.344 17.54,10.676c4.99,10.332 4.623,17.285 7,22.324c2.376,5.039 4.132,7.674 11,9c6.868,1.326 12.569,-1.506 18,2c5.431,3.506 13,3 13,3" style="fill:none;stroke-width:4px;stroke:#fff;"/><path d="M185.765,442c0,0 1.036,12.526 10,12c8.964,-0.526 9.493,8.248 4,14" style="fill:none;stroke-width:4px;stroke:#fff;"/><path d="M157.765,491c0,0 26.003,-8.701 33,-7c6.996,1.701 17.586,3.345 22,-3c4.414,-6.345 16.574,-21.99 17,-35" style="fill:none;stroke-width:4px;stroke:#fff;"/><path d="M174.765,468c0,0 0.229,-17.829 8,-6c7.414,11.286 12.944,10.006 17,6" style="fill:none;stroke-width:4px;stroke:#fff;"/><path d="M175.765,416c0,0 14.029,0.004 17,6.5c2.971,6.496 14.148,15.168 19,15.5c4.852,0.332 14.724,3.266 18,-14" style="fill:none;stroke-width:4px;stroke:#fff;"/><path d="M205.765,416c0,0 -8.855,-5.057 -13,-9c-4.146,-3.943 -10.944,-7.035 -17,-6c-6.057,1.035 -18.437,-2.965 -23,-7c-4.563,-4.035 -9.186,-9.107 -10,-14c-0.814,-4.893 -9.014,-14.16 -11.594,-13" style="fill:none;stroke-width:4px;stroke:#fff;"/><path d="M229.765,416c0,0 -1.868,-15.474 -12,-17c-10.132,-1.526 -17.585,-1.545 -24,-6c-6.415,-4.455 -5.052,-8.567 -11,-10c-5.949,-1.433 -14.182,-1.401 -18,-7c-3.818,-5.599 -6.243,-11.024 -7,-17" style="fill:none;stroke-width:4px;stroke:#fff;"/><path d="M127.765,273c0,0 13.849,-8.245 20,2c6.15,10.245 -4.249,17.267 4,20c8.249,2.733 17.19,1.842 21,-4c3.81,-5.842 6.321,-17.87 18,-13c11.679,4.87 10.908,9.907 13,14c2.092,4.093 14,10 14,10" style="fill:none;stroke-width:4px;stroke:#fff;"/><path d="M149.765,283c0,0 -2.727,18.369 -18.594,25" style="fill:none;stroke-width:4px;stroke:#fff;"/><path d="M230.765,323c0,0 -12.223,0.849 -23,-7c-10.778,-7.849 -9.96,-17.873 -14,-22c-4.041,-4.127 -7,-3 -7,-3" style="fill:none;stroke-width:4px;stroke:#fff;"/><path d="M99.765,202c0,0 15.439,-5.019 24,3c8.561,8.019 7.926,14.758 12,17c4.074,2.242 9,3 9,3" style="fill:none;stroke-width:4px;stroke:#fff;"/><path d="M134.765,220c0,0 7.924,-4.65 6,-12c-1.925,-7.35 -7.595,-18.845 -15,-22c-7.405,-3.155 -12.618,-5.135 -21,-6c-8.383,-0.865 -14,5 -14,5" style="fill:none;stroke-width:4px;stroke:#fff;"/><path d="M115.915,139c0,0 7.017,4.076 6.35,12c-0.667,7.924 -6.35,18 -6.35,18" style="fill:none;stroke-width:4px;stroke:#fff;"/><path d="M132.765,142c0,0 -9.176,8.671 -10.455,12" style="fill:none;stroke-width:4px;stroke:#fff;"/><path d="M146.765,182c0,0 12.743,-7.379 17,-2.087c4.256,5.292 1.961,15.619 2,20.536c0.039,4.916 -1.171,18.271 1,26.551c2.171,8.28 6.544,13.586 5,18c-1.545,4.414 -5,14 -5,14" style="fill:none;stroke-width:4px;stroke:#fff;"/><path d="M137.765,199.956c0,0 11.844,-4.383 16,0.493c4.156,4.876 11,8.551 11,8.551" style="fill:none;stroke-width:4px;stroke:#fff;"/><path d="M142.929,152.875c0,0 11.942,-18.777 29.159,-10.875c17.218,7.902 -4.201,30.119 43.314,12" style="fill:none;stroke-width:4px;stroke:#fff;"/><path d="M165.765,199.956c0,0 -0.121,-16.825 18,-21.954c18.121,-5.129 16.604,2.302 27,-1" style="fill:none;stroke-width:4px;stroke:#fff;"/><path d="M214.765,215c0,0 18.696,16.786 19,30" style="fill:none;stroke-width:4px;stroke:#fff;"/><path d="M233.765,211c0,0 -8.552,-9.883 -17,-11.044c-8.448,-1.16 -15,0 -15,0c0,0 -3.527,0.773 -4,6.044" style="fill:none;stroke-width:4px;stroke:#fff;"/><path d="M205.765,199.441c0,0 -6.261,-0.501 -8,-8.441" style="fill:none;stroke-width:4px;stroke:#fff;"/><path d="M180.765,205.22c0,0 0.178,25.148 7,33.78c6.822,8.632 22.329,2.618 25,11c2.67,8.382 -1,29 -1,29" style="fill:none;stroke-width:4px;stroke:#fff;"/><path d="M64.765,309c0,0 -8.3,24.806 0,35c8.299,10.194 12,13 12,13" style="fill:none;stroke-width:4px;stroke:#fff;"/><path d="M36.765,305c0,0 2.026,17.334 11,27" style="fill:none;stroke-width:4px;stroke:#fff;"/><path d="M140.765,135c0,0 1.878,-11.05 14,-16c12.121,-4.95 34.826,-12.889 32,-18c-2.826,-5.111 -14.742,-7.555 -10,-15c4.741,-7.445 15,-11 15,-11" style="fill:none;stroke-width:4px;stroke:#fff;"/><path d="M191.765,75c0,0 -22.27,-2.293 -20,-13c2.27,-10.707 18,-21 18,-21" style="fill:none;stroke-width:4px;stroke:#fff;"/><path d="M171.57,65c0,0 -11.434,0.492 -14.805,8c-3.371,7.508 -7.001,12.789 -13,15c-5.999,2.211 -26.537,9.072 -26,17c0.536,7.928 2.374,10.036 4,11c1.626,0.964 5.726,1.692 8,0" style="fill:none;stroke-width:4px;stroke:#fff;"/><path d="M136.765,107c1.612,-4.786 8.245,0.661 13,-2c4.755,-2.661 -0.474,-7.768 7,-8" style="fill:none;stroke-width:4px;stroke:#fff;"/><path d="M194.765,59c0,0 0.114,9.764 12,6c11.885,-3.764 8.98,9.678 6,18c-2.981,8.322 -4.424,12.404 -3,17c1.424,4.596 4.666,8.832 -4,9c-8.666,0.168 -11.744,3.745 -12,8.014c-0.257,4.269 -1,8.986 -1,8.986c0,0 6.399,1.833 9,6" style="fill:none;stroke-width:4px;stroke:#fff;"/><path d="M166.765,126c0,0 5.085,-5.467 13.902,-4c8.818,1.467 12.098,4 12.098,4" style="fill:none;stroke-width:4px;stroke:#fff;"/><path d="M208.765,97c0,0 -5.469,-12.78 -11,-10" style="fill:none;stroke-width:4px;stroke:#fff;"/><path d="M233.765,132c0,0 -5.395,-8.151 -12,-10.25" style="fill:none;stroke-width:4px;stroke:#fff;"/><path d="M230.765,83c0,0 -6.48,0.718 -8,11c-1.52,10.282 10,13 10,13" style="fill:none;stroke-width:4px;stroke:#fff;"/></g><g><path d="M243.765,139c5.12,6.143 8.648,11.259 21,11" style="fill:none;stroke-width:4px;stroke:#fff;"/><path d="M234.064,165c0,0 10.281,-8.391 13.701,-5c3.42,3.391 7.842,11.76 17,13c9.158,1.24 22.584,2.591 21,16c-1.585,13.409 -1.989,20.49 -9,23c-7.011,2.51 -17,0 -17,0" style="fill:none;stroke-width:4px;stroke:#fff;"/><path d="M233.765,213.116c0,0 2.696,-11.974 13,-13.675c10.303,-1.701 22,-6.441 22,-6.441" style="fill:none;stroke-width:4px;stroke:#fff;"/><path d="M251.265,198c0,0 -3.457,-10.74 3,-14.846" style="fill:none;stroke-width:4px;stroke:#fff;"/><path d="M252.303,233c0,0 5.642,1.28 7.676,10c2.033,8.72 -2.937,9.535 2.786,13c5.723,3.465 11.012,-1.068 14,6" style="fill:none;stroke-width:4px;stroke:#fff;"/><path d="M233.765,325c0,0 8.366,-18.172 18.538,-15c10.171,3.172 9.297,10.194 16.462,5" style="fill:none;stroke-width:4px;stroke:#fff;"/><path d="M259.765,331c0,0 22.673,1.681 21,-10c-1.674,-11.681 -2.492,-18.857 -9,-26c-6.508,-7.143 -5.139,-14.132 0,-14c5.139,0.132 26.459,-5.66 23,-19c-3.46,-13.34 -8.417,-16.449 -15,-20c-6.583,-3.551 -8.125,-5.07 -8,-9c0.125,-3.93 0.997,-18.477 -7.231,-19.884" style="fill:none;stroke-width:4px;stroke:#fff;"/><path d="M230.765,346c0,0 14.217,-1.186 20.5,3c6.282,4.186 16.764,3.031 26.189,-4c9.424,-7.031 11.814,-2.141 17.688,-1c5.874,1.141 17.63,-4.945 19.623,-10c1.993,-5.055 0.744,-10.003 10,-12c9.256,-1.997 20.184,-9.034 20,-20c-0.184,-10.966 -11.039,-18.593 -8,-23c3.038,-4.407 13.416,0.385 21,-6.9c7.583,-7.286 5.05,-18.02 13,-19.1c7.95,-1.08 17,-12 17,-12c0,0 3.85,5.996 10,7c6.149,1.004 13.212,2.486 21,-8" style="fill:none;stroke-width:4px;stroke:#fff;"/><path d="M267.765,37.599c0,0 6.973,8.482 6,13.401c-0.973,4.919 7.04,2.819 8,14c0.959,11.181 11.123,8.725 9,19c-2.123,10.275 -4.872,17 -4.872,17c0,0 -3.211,-14.383 -10.128,-22c-6.918,-7.617 -8.414,-4.484 -15.786,-4" style="fill:none;stroke-width:4px;stroke:#fff;"/><path d="M230.765,389c0,0 11.725,-9.598 12,-16c0.274,-6.402 -1,-11 -1,-11" style="fill:none;stroke-width:4px;stroke:#fff;"/><path d="M230.765,448c0,0 13.645,27.742 32,26c18.355,-1.742 24.903,-12.856 28.238,-19c3.335,-6.144 8.762,-11 8.762,-11" style="fill:none;stroke-width:4px;stroke:#fff;"/><path d="M259.979,453c0,0 11.979,5.722 18.786,-4c6.807,-9.722 6.839,-20.428 15,-23c8.161,-2.572 13.003,-13.462 16,-18c2.996,-4.538 8,-19 8,-19" style="fill:none;stroke-width:4px;stroke:#fff;"/><path d="M311.765,404c0,0 -2.956,7.761 6,11c8.955,3.239 18.128,1.748 19,-3c0.871,-4.748 8,-12 8,-12" style="fill:none;stroke-width:4px;stroke:#fff;"/><path d="M335.765,413c0,0 -3.06,8.289 -2,12c1.06,3.711 5.606,17.125 -5.435,29.673c-11.041,12.547 -26.336,17.923 -28.565,19.406c-2.229,1.483 -22.36,9.682 -30,0" style="fill:none;stroke-width:4px;stroke:#fff;"/><path d="M265.265,497c0,0 17.29,-8.59 31.5,-11c14.209,-2.41 35.392,-4.517 35,-11.921c-0.393,-7.404 -14,-9.079 -14,-9.079" style="fill:none;stroke-width:4px;stroke:#fff;"/><path d="M230.765,436c0,0 6.218,-14.963 13,-10c6.782,4.963 5,8 5,8" style="fill:none;stroke-width:4px;stroke:#fff;"/><path d="M248.976,430.496c0,0 -2.972,-12.006 2.789,-17.496c5.761,-5.49 6.541,0.959 9,-9" style="fill:none;stroke-width:4px;stroke:#fff;"/><path d="M256.765,363c0,0 12.182,8.279 8.5,16c-3.682,7.721 -5.538,10.577 -10.778,14" style="fill:none;stroke-width:4px;stroke:#fff;"/><path d="M262.765,385c0,0 18.602,3.509 16,19c-2.602,15.491 -8.608,19.203 -15,20.991" style="fill:none;stroke-width:4px;stroke:#fff;"/><path d="M279.014,396c0,0 12.895,2.959 16.751,-3c3.855,-5.959 5.675,-16.966 16,-21c10.325,-4.034 32.28,-5.921 33,-23c0.72,-17.079 -10.411,-26.734 -24,-26" style="fill:none;stroke-width:4px;stroke:#fff;"/><path d="M285.765,370c0,0 -1.969,-3.953 11,-7c12.969,-3.047 14.315,-5.33 14.141,-8" style="fill:none;stroke-width:4px;stroke:#fff;"/><path d="M424.765,289c0,0 -4.124,-14.523 -17,-17c-12.877,-2.477 -22.473,-2.825 -25,1c-2.527,3.825 -5.128,6.015 -5,11" style="fill:none;stroke-width:4px;stroke:#fff;"/><path d="M344.798,341c0,0 24.025,-7.436 23.967,-24c-0.059,-16.564 -10,-28 -10,-28" style="fill:none;stroke-width:4px;stroke:#fff;"/><path d="M334.765,429c0,0 3.465,7.582 10.033,6c6.568,-1.582 12.786,-5.416 16.967,-14" style="fill:none;stroke-width:4px;stroke:#fff;"/><path d="M344.798,447c0,0 15.446,7.629 23.967,-2c8.521,-9.629 6.558,-15.337 12,-20c5.441,-4.663 8,-9 8,-9" style="fill:none;stroke-width:4px;stroke:#fff;"/><path d="M348.265,416c0,0 20.248,-10.568 18.516,-20c-1.731,-9.432 -3.358,-15.936 -10.016,-19c-6.658,-3.064 -12.978,-1.685 -16,4c-3.022,5.685 -10.279,10.308 -12,18" style="fill:none;stroke-width:4px;stroke:#fff;"/><path d="M295.765,293c0,0 5.412,-9.323 12,-8c6.588,1.323 10,9 10,9" style="fill:none;stroke-width:4px;stroke:#fff;"/><path d="M306.765,284.871c0,0 4.806,-15.688 -1,-24.871" style="fill:none;stroke-width:4px;stroke:#fff;"/><path d="M274.765,54c0,0 -9.493,-7.219 -14.786,-2" style="fill:none;stroke-width:4px;stroke:#fff;"/><path d="M295.765,101c0,0 4.728,-14.306 17,-14c12.272,0.306 18.907,2.948 23,10" style="fill:none;stroke-width:4px;stroke:#fff;"/><path d="M248.765,129c6.733,0.817 11.214,-8 11.214,-8c0,0 -1.905,12.189 5.786,13c7.69,0.811 12.759,-1.075 25.238,-1c12.479,0.075 17.089,2.983 24.762,-4c7.673,-6.983 -0.661,-31.66 20,-32" style="fill:none;stroke-width:4px;stroke:#fff;"/><path d="M285.893,101c0,0 -10.093,10.438 -5.128,14.602c4.965,4.163 5.38,4.977 6,5.398" style="fill:none;stroke-width:4px;stroke:#fff;"/><path d="M283.078,176c0,0 -0.99,-16.258 9.187,-20c10.176,-3.742 14.5,-7 14.5,-7" style="fill:none;stroke-width:4px;stroke:#fff;"/><path d="M303.547,133.641c0,0 15.499,-0.725 15.218,8.359c-0.281,9.084 -7.036,24.388 -4,30c3.036,5.612 14.657,7.632 14,17c-0.657,9.368 1,19 1,19" style="fill:none;stroke-width:4px;stroke:#fff;"/><path d="M355.765,204c0,0 -3.535,17.598 -15,19c-11.465,1.402 -30.467,7.641 -35,-20" style="fill:none;stroke-width:4px;stroke:#fff;"/><path d="M319.265,224.319c0,0 -15.296,-1.201 -16.5,6.681" style="fill:none;stroke-width:4px;stroke:#fff;"/><path d="M319.265,238c0,0 6.37,3.09 4.5,7c-1.871,3.91 -7,7 -7,7" style="fill:none;stroke-width:4px;stroke:#fff;"/><path d="M324.109,245c0,0 5.557,5.78 11.656,4c6.099,-1.78 14.686,-11.111 20,-14c5.314,-2.889 9.896,-7.004 10,-15c0.103,-7.996 3.337,-13.066 5,-18c1.662,-4.934 -1.157,-14.717 -9,-16c-7.843,-1.283 -16.237,0.408 -19,-7c-2.763,-7.408 -5.873,-11.072 -11.5,-11" style="fill:none;stroke-width:4px;stroke:#fff;"/><path d="M334.765,151c0,0 8.601,-1.347 12.824,8c4.222,9.347 3.176,24 3.176,24" style="fill:none;stroke-width:4px;stroke:#fff;"/><path d="M235.765,59c0,0 13.864,-7.592 13,-1c-0.864,6.592 -7.991,22.003 -2,26c5.991,3.997 16.343,10.416 8,16c-8.343,5.584 -8.915,7.405 -8,11" style="fill:none;stroke-width:4px;stroke:#fff;"/><path d="M403.765,421c0,0 5.093,-15.375 -1,-21c-6.093,-5.625 -15,-3 -15,-3c0,0 21.752,-7.64 20,-18c-1.752,-10.36 -11,-8 -11,-8c0,0 8.155,-11.337 -1,-15c-9.155,-3.663 -16.744,-2.552 -20,2c-3.256,4.552 -9.338,6.694 -12,1" style="fill:none;stroke-width:4px;stroke:#fff;"/><path d="M381.765,342c0,0 19.557,2.025 21,-10c1.442,-12.025 -5.489,-13.779 5.1,-22c10.589,-8.221 18.131,-9.638 13.9,-29" style="fill:none;stroke-width:4px;stroke:#fff;"/><path d="M402.363,295c0,0 -14.291,4.357 -14.598,10c-0.308,5.643 -2.38,14.834 -6,16" style="fill:none;stroke-width:4px;stroke:#fff;"/><path d="M403.363,325c0,0 10.163,-2.18 12.402,8c2.238,10.18 -4.312,12.641 -3,19c1.311,6.359 9.803,9.587 7,17c-2.803,7.413 3.197,18.502 3.197,18.502" style="fill:none;stroke-width:4px;stroke:#fff;"/><path d="M396.765,371c0,0 -6.923,1.078 -10.95,9c-4.027,7.922 -13.299,11.29 -18.929,12" style="fill:none;stroke-width:4px;stroke:#fff;"/><path d="M335.765,97c0,0 7.602,6.247 9,18.602c1.398,12.354 -12.746,11.176 3.061,21.398c15.806,10.222 21.166,9.903 21.939,17c0.772,7.097 20,10 20,10" style="fill:none;stroke-width:4px;stroke:#fff;"/><path d="M381.826,186c0,0 9.378,-2.312 7.939,5c-1.44,7.312 4.331,12.242 9,15c4.669,2.758 11,3 11,3" style="fill:none;stroke-width:4px;stroke:#fff;"/><path d="M311.765,63c0,0 -6.373,3.247 -7,9" style="fill:none;stroke-width:4px;stroke:#fff;"/><path d="M291.056,63c3.428,9.563 10.458,5.424 13.709,9c3.251,3.576 0,7 0,7" style="fill:none;stroke-width:4px;stroke:#fff;"/></g></g></svg>