<?xml version="1.0" standalone="no"?><!DOCTYPE svg PUBLIC "-//W3C//DTD SVG 1.1//EN" "http://www.w3.org/Graphics/SVG/1.1/DTD/svg11.dtd"><svg width="100%" height="100%" viewBox="0 0 261 180" version="1.1" xmlns="http://www.w3.org/2000/svg" xmlns:xlink="http://www.w3.org/1999/xlink" xml:space="preserve" style="fill-rule:evenodd;clip-rule:evenodd;stroke-linejoin:round;stroke-miterlimit:1.41421;"><path d="M130.767,21.211c17.945,0 34.283,6.877 46.531,18.135c-6.003,-0.161 -11.994,3.408 -12.241,11.579c-0.505,16.519 19.753,20.038 8.837,53.265l-9.029,27.485l-24.592,-72.439c-0.381,-1.122 0.062,-1.76 1.441,-1.76l6.952,0c0.361,0 0.657,-0.308 0.657,-0.686l0,-4.118c0,-0.378 -0.296,-0.702 -0.657,-0.686c-13.166,0.576 -26.255,0.579 -39.264,0c-0.363,-0.016 -0.657,0.31 -0.657,0.687l0,4.118c0,0.378 0.296,0.687 0.657,0.687l6.99,0c1.555,0 1.991,0.518 2.357,1.52l10.104,27.633l-15.199,45.896l-24.985,-73.591c-0.31,-0.923 0.065,-1.459 0.954,-1.459l7.965,0c0.362,0 0.657,-0.308 0.657,-0.686l0,-4.118c0,-0.378 -0.296,-0.705 -0.657,-0.686c-8.357,0.444 -16.746,0.533 -24.56,0.613c12.263,-18.89 33.54,-31.39 57.735,-31.39l0,0l0.004,0.001ZM191.268,57.245c5.286,9.739 8.287,20.897 8.287,32.753c0,26.021 -14.457,48.669 -35.773,60.359l21.454,-60.765c3.323,-9.404 6.408,-22.113 6.03,-32.347l0,0l0.002,0ZM153.797,154.83c-7.202,2.561 -14.952,3.958 -23.03,3.958c-6.96,0 -13.676,-1.038 -20.007,-2.958l21.192,-60.73l21.845,59.733c0,0 0,-0.003 0,-0.003ZM101.331,152.184c-23.263,-11.032 -39.354,-34.732 -39.354,-62.183c0,-10.176 2.214,-19.836 6.181,-28.527l33.175,90.711l0,0l-0.002,-0.001ZM130.765,14.756c41.547,0 75.242,33.695 75.242,75.242c0,41.547 -33.695,75.242 -75.242,75.242c-41.547,0 -75.242,-33.695 -75.242,-75.242c0,-41.547 33.695,-75.242 75.242,-75.242l0,0ZM130.765,10c44.174,0 80,35.826 80,80c0,44.174 -35.826,80 -80,80c-44.174,0 -80,-35.826 -80,-80c0,-44.174 35.826,-80 80,-80l0,0Z" style="fill:#fff;"/></svg>