<?xml version="1.0" standalone="no"?><!DOCTYPE svg PUBLIC "-//W3C//DTD SVG 1.1//EN" "http://www.w3.org/Graphics/SVG/1.1/DTD/svg11.dtd"><svg width="100%" height="100%" viewBox="0 0 261 180" version="1.1" xmlns="http://www.w3.org/2000/svg" xmlns:xlink="http://www.w3.org/1999/xlink" xml:space="preserve" style="fill-rule:evenodd;clip-rule:evenodd;stroke-linecap:round;stroke-linejoin:round;stroke-miterlimit:1.41421;"><g><g><path id="aaaavva" d="M141.304,43.94l-21.078,0l-6.227,44.215l12.455,45.821l8.622,0l12.455,-45.821l-6.227,-44.215Z" style="fill:none;stroke-width:4px;stroke:#fff;"/><path d="M130.765,133.976l0,-45.821" style="fill:none;stroke-width:5px;stroke-linecap:butt;stroke:#fff;"/><circle cx="130.765" cy="88.155" r="4.982" style="fill:#fff;stroke-width:4px;stroke:#fff;"/><rect x="114.766" y="25" width="31.998" height="28.629" style="fill:#fff;"/><path d="M150.764,57.629l-39.998,0l0,-36.629l39.998,0l0,36.629ZM118.766,29l0,20.629l23.998,0l0,-20.629l-23.998,0Z" style="fill:#fff;"/></g><g><path d="M19.53,103.31c0,0 0,0 0,0c28.538,31.257 68.91,49.064 111.235,49.064c42.325,0 82.697,-17.807 111.235,-49.064c0,0 0,0 0,0" style="fill:none;stroke-width:4px;stroke:#fff;"/><rect x="122.691" y="144.091" width="16.147" height="16.147" style="fill:#fff;stroke-width:4px;stroke:#fff;"/><path d="M41.508,152.164l178.514,0" style="fill:none;stroke-width:4px;stroke:#fff;"/><circle cx="41.508" cy="152.164" r="3.588" style="fill:#fff;stroke-width:4px;stroke:#fff;"/><circle cx="220.022" cy="152.164" r="3.588" style="fill:#fff;stroke-width:4px;stroke:#fff;"/></g></g></svg>