<?xml version="1.0" standalone="no"?><!DOCTYPE svg PUBLIC "-//W3C//DTD SVG 1.1//EN" "http://www.w3.org/Graphics/SVG/1.1/DTD/svg11.dtd"><svg width="100%" height="100%" viewBox="0 0 261 180" version="1.1" xmlns="http://www.w3.org/2000/svg" xmlns:xlink="http://www.w3.org/1999/xlink" xml:space="preserve" style="fill-rule:evenodd;clip-rule:evenodd;stroke-miterlimit:1.41421;"><g><g id="desktop"><g><g><path d="M172.5,132.925l0,-9.104l-59.235,0c0,0 0,3.587 0,6.101c0,2.514 -2.765,3.003 -2.765,3.003l62,0Z" style="fill:#fff;fill-rule:nonzero;"/><path d="M174.107,122.214l0,12.318l-65.734,0l-0.27,-2.773l2.104,-0.413l0.009,-0.002l0.024,-0.006l0.035,-0.009l0.043,-0.012l0.052,-0.015l0.059,-0.018l0.071,-0.025l0.03,-0.011l0.036,-0.013l0.036,-0.014l0.037,-0.015l0.037,-0.016l0.04,-0.017l0.038,-0.018l0.038,-0.018l0.04,-0.02l0.039,-0.02l0.038,-0.021l0.039,-0.022l0.038,-0.023l0.038,-0.023l0.037,-0.024l0.036,-0.024l0.035,-0.025l0.034,-0.026l0.033,-0.025l0.032,-0.027l0.032,-0.027l0.03,-0.027l0.028,-0.027l0.027,-0.028l0.026,-0.028l0.024,-0.027l0.024,-0.029l0.022,-0.029l0.021,-0.029l0.023,-0.034l0.006,-0.009l0.009,-0.016l0.01,-0.016l0.008,-0.014l0.008,-0.015l0.008,-0.015l0.008,-0.016l0.008,-0.017l0.008,-0.017l0.007,-0.016l0.007,-0.017l0.006,-0.017l0.007,-0.017l0.006,-0.019l0.006,-0.018l0.006,-0.019l0.006,-0.02l0.005,-0.019l0.005,-0.021l0.005,-0.021l0.004,-0.021l0.004,-0.023l0.004,-0.023l0.004,-0.023l0.003,-0.025l0.003,-0.026l0.003,-0.026l0.002,-0.027l0.002,-0.028l0.001,-0.029l0.001,-0.029l0,-0.038l0,-7.701l62.449,0ZM114.871,125.427l0,4.501l0,0.08l-0.002,0.086l-0.004,0.085l-0.005,0.085l-0.007,0.084l-0.008,0.083l-0.01,0.083l-0.011,0.083l-0.012,0.082l-0.014,0.081l-0.015,0.08l-0.017,0.08l-0.018,0.079l-0.019,0.078l-0.021,0.078l-0.022,0.076l-0.023,0.075l-0.004,0.013l56.234,0l0,-5.892l-56.022,0Z" style="fill:#fff;"/></g><g><path d="M155.404,121.946c0,3.549 -2.878,6.427 -6.427,6.427l-14.282,0c-3.549,0 -6.427,-2.878 -6.427,-6.427l0,-5.296c0,-3.549 2.878,-1.071 6.427,-1.071l14.282,0c3.549,0 6.427,-2.478 6.427,1.071l0,5.296Z" style="fill:#fff;fill-rule:nonzero;"/><path d="M154.173,113.132l0.079,0.003l0.082,0.005l0.083,0.007l0.083,0.009l0.086,0.012l0.086,0.014l0.088,0.017l0.087,0.019l0.089,0.023l0.091,0.026l0.09,0.03l0.092,0.033l0.091,0.038l0.091,0.041l0.091,0.045l0.089,0.049l0.089,0.054l0.089,0.059l0.086,0.062l0.083,0.065l0.081,0.069l0.078,0.073l0.075,0.075l0.072,0.079l0.068,0.081l0.065,0.084l0.061,0.086l0.056,0.085l0.053,0.088l0.05,0.089l0.047,0.092l0.042,0.091l0.04,0.091l0.036,0.092l0.033,0.092l0.031,0.091l0.028,0.094l0.025,0.094l0.023,0.092l0.021,0.094l0.019,0.095l0.016,0.094l0.015,0.095l0.012,0.096l0.011,0.096l0.01,0.098l0.008,0.097l0.006,0.099l0.005,0.099l0.003,0.101l0.002,0.102l0.001,0.098l0,5.306l-0.001,0.099l-0.002,0.103l-0.003,0.103l-0.005,0.102l-0.006,0.102l-0.007,0.102l-0.008,0.102l-0.01,0.102l-0.011,0.101l-0.012,0.1l-0.013,0.1l-0.015,0.101l-0.016,0.1l-0.017,0.098l-0.018,0.099l-0.02,0.099l-0.02,0.098l-0.022,0.097l-0.023,0.097l-0.024,0.096l-0.026,0.097l-0.026,0.096l-0.028,0.095l-0.029,0.095l-0.03,0.093l-0.031,0.095l-0.032,0.093l-0.033,0.092l-0.035,0.092l-0.035,0.092l-0.037,0.091l-0.037,0.091l-0.039,0.09l-0.04,0.089l-0.041,0.089l-0.041,0.088l-0.043,0.088l-0.044,0.086l-0.045,0.087l-0.046,0.085l-0.047,0.086l-0.048,0.084l-0.049,0.084l-0.049,0.083l-0.051,0.082l-0.052,0.083l-0.053,0.08l-0.053,0.081l-0.055,0.08l-0.055,0.079l-0.057,0.078l-0.057,0.078l-0.059,0.077l-0.058,0.076l-0.06,0.075l-0.062,0.076l-0.061,0.073l-0.063,0.073l-0.063,0.073l-0.065,0.071l-0.065,0.071l-0.066,0.07l-0.067,0.069l-0.067,0.069l-0.069,0.067l-0.069,0.067l-0.07,0.066l-0.071,0.066l-0.072,0.064l-0.072,0.063l-0.073,0.063l-0.075,0.062l-0.074,0.061l-0.075,0.059l-0.076,0.06l-0.077,0.058l-0.078,0.057l-0.078,0.057l-0.08,0.055l-0.08,0.055l-0.08,0.053l-0.081,0.053l-0.082,0.052l-0.082,0.05l-0.083,0.05l-0.084,0.05l-0.085,0.048l-0.085,0.046l-0.085,0.046l-0.087,0.045l-0.086,0.044l-0.088,0.043l-0.088,0.041l-0.089,0.041l-0.09,0.04l-0.089,0.039l-0.091,0.037l-0.091,0.037l-0.092,0.035l-0.091,0.035l-0.093,0.033l-0.094,0.032l-0.093,0.031l-0.095,0.031l-0.094,0.028l-0.095,0.028l-0.096,0.026l-0.097,0.026l-0.096,0.024l-0.097,0.023l-0.098,0.022l-0.097,0.021l-0.099,0.019l-0.099,0.018l-0.099,0.017l-0.099,0.016l-0.101,0.015l-0.1,0.013l-0.1,0.012l-0.101,0.011l-0.102,0.01l-0.102,0.008l-0.101,0.008l-0.102,0.005l-0.104,0.005l-0.103,0.003l-0.102,0.002l-0.099,0.001l-14.292,0l-0.099,-0.001l-0.102,-0.002l-0.103,-0.003l-0.104,-0.005l-0.102,-0.005l-0.101,-0.008l-0.102,-0.008l-0.101,-0.01l-0.102,-0.011l-0.1,-0.012l-0.1,-0.013l-0.101,-0.015l-0.099,-0.016l-0.099,-0.017l-0.099,-0.018l-0.099,-0.019l-0.097,-0.021l-0.097,-0.022l-0.098,-0.023l-0.096,-0.024l-0.097,-0.026l-0.096,-0.026l-0.094,-0.028l-0.095,-0.028l-0.095,-0.031l-0.093,-0.031l-0.094,-0.032l-0.093,-0.033l-0.091,-0.035l-0.091,-0.035l-0.092,-0.037l-0.091,-0.037l-0.089,-0.039l-0.09,-0.04l-0.089,-0.041l-0.087,-0.041l-0.089,-0.043l-0.086,-0.044l-0.087,-0.045l-0.085,-0.046l-0.085,-0.046l-0.084,-0.048l-0.085,-0.05l-0.083,-0.05l-0.082,-0.05l-0.082,-0.052l-0.081,-0.053l-0.08,-0.053l-0.08,-0.055l-0.08,-0.055l-0.078,-0.057l-0.077,-0.057l-0.077,-0.058l-0.077,-0.06l-0.075,-0.059l-0.074,-0.061l-0.075,-0.062l-0.073,-0.063l-0.072,-0.063l-0.072,-0.064l-0.071,-0.066l-0.07,-0.066l-0.069,-0.067l-0.069,-0.067l-0.067,-0.069l-0.067,-0.069l-0.066,-0.07l-0.065,-0.071l-0.065,-0.072l-0.063,-0.072l-0.062,-0.073l-0.062,-0.073l-0.062,-0.076l-0.059,-0.075l-0.059,-0.076l-0.059,-0.077l-0.057,-0.078l-0.056,-0.078l-0.056,-0.079l-0.055,-0.08l-0.053,-0.081l-0.053,-0.08l-0.052,-0.083l-0.051,-0.082l-0.049,-0.083l-0.049,-0.084l-0.048,-0.084l-0.047,-0.086l-0.046,-0.085l-0.045,-0.087l-0.043,-0.086l-0.044,-0.088l-0.041,-0.088l-0.041,-0.089l-0.04,-0.089l-0.039,-0.09l-0.037,-0.091l-0.037,-0.091l-0.035,-0.092l-0.035,-0.092l-0.033,-0.092l-0.032,-0.093l-0.031,-0.095l-0.03,-0.093l-0.029,-0.095l-0.028,-0.095l-0.026,-0.096l-0.026,-0.097l-0.024,-0.096l-0.023,-0.097l-0.022,-0.097l-0.02,-0.098l-0.02,-0.099l-0.018,-0.099l-0.017,-0.098l-0.016,-0.1l-0.015,-0.101l-0.013,-0.1l-0.012,-0.1l-0.011,-0.101l-0.01,-0.102l-0.008,-0.102l-0.007,-0.102l-0.006,-0.102l-0.005,-0.102l-0.003,-0.103l-0.002,-0.103l-0.001,-0.099l0,-5.306l0.001,-0.098l0.002,-0.102l0.003,-0.101l0.005,-0.099l0.007,-0.099l0.007,-0.097l0.01,-0.098l0.011,-0.096l0.013,-0.096l0.014,-0.095l0.017,-0.094l0.018,-0.095l0.021,-0.094l0.023,-0.092l0.025,-0.094l0.028,-0.094l0.031,-0.091l0.033,-0.092l0.036,-0.092l0.04,-0.091l0.042,-0.091l0.047,-0.092l0.05,-0.089l0.053,-0.088l0.056,-0.085l0.062,-0.086l0.064,-0.084l0.068,-0.081l0.072,-0.079l0.075,-0.075l0.078,-0.073l0.081,-0.069l0.083,-0.065l0.086,-0.062l0.089,-0.059l0.089,-0.054l0.089,-0.049l0.091,-0.045l0.091,-0.041l0.091,-0.038l0.092,-0.033l0.09,-0.03l0.091,-0.026l0.089,-0.023l0.087,-0.019l0.088,-0.017l0.087,-0.014l0.085,-0.012l0.083,-0.009l0.084,-0.007l0.081,-0.005l0.079,-0.003l0.079,-0.001l0.078,0l0.077,0.001l0.076,0.003l0.076,0.004l0.08,0.006l0.14,0.013l0.144,0.017l0.141,0.02l0.14,0.022l0.138,0.025l0.137,0.026l0.136,0.028l0.135,0.03l0.137,0.031l0.266,0.063l0.268,0.066l0.268,0.066l0.271,0.066l0.133,0.032l0.134,0.031l0.135,0.031l0.135,0.029l0.134,0.029l0.135,0.027l0.135,0.025l0.135,0.024l0.134,0.023l0.135,0.02l0.134,0.019l0.134,0.016l0.134,0.014l0.137,0.013l0.063,0.004l0.066,0.005l0.066,0.003l0.066,0.003l0.066,0.003l0.067,0.002l0.065,0.001l0.07,0l14.274,0l0.07,0l0.065,-0.001l0.067,-0.002l0.067,-0.003l0.065,-0.003l0.066,-0.003l0.066,-0.005l0.063,-0.004l0.138,-0.013l0.133,-0.014l0.134,-0.016l0.134,-0.019l0.135,-0.02l0.134,-0.023l0.135,-0.024l0.135,-0.025l0.135,-0.027l0.134,-0.029l0.135,-0.029l0.135,-0.031l0.135,-0.031l0.133,-0.032l0.27,-0.066l0.268,-0.066l0.269,-0.066l0.265,-0.063l0.137,-0.031l0.136,-0.03l0.135,-0.028l0.137,-0.026l0.138,-0.025l0.14,-0.022l0.141,-0.02l0.144,-0.017l0.14,-0.013l0.08,-0.006l0.076,-0.004l0.076,-0.003l0.077,-0.001l0.078,0l0.079,0.001ZM153.761,116.372l-0.081,0.013l-0.087,0.016l-0.095,0.018l-0.099,0.021l-0.105,0.023l-0.108,0.024l-0.239,0.057l-0.253,0.062l-0.27,0.067l-0.284,0.069l-0.15,0.036l-0.152,0.035l-0.155,0.035l-0.159,0.035l-0.162,0.034l-0.166,0.033l-0.168,0.032l-0.172,0.031l-0.175,0.029l-0.178,0.027l-0.181,0.025l-0.184,0.023l-0.186,0.02l-0.186,0.016l-0.099,0.008l-0.097,0.006l-0.097,0.006l-0.099,0.004l-0.098,0.004l-0.098,0.002l-0.101,0.002l-0.096,0l-14.29,0l-0.096,0l-0.1,-0.002l-0.099,-0.002l-0.098,-0.004l-0.099,-0.004l-0.097,-0.006l-0.097,-0.006l-0.099,-0.008l-0.186,-0.016l-0.186,-0.02l-0.184,-0.023l-0.181,-0.025l-0.178,-0.027l-0.175,-0.029l-0.172,-0.031l-0.168,-0.032l-0.166,-0.033l-0.162,-0.034l-0.159,-0.035l-0.155,-0.035l-0.152,-0.035l-0.15,-0.036l-0.284,-0.069l-0.27,-0.067l-0.253,-0.062l-0.238,-0.057l-0.109,-0.024l-0.105,-0.023l-0.099,-0.021l-0.095,-0.018l-0.087,-0.016l-0.081,-0.013l-0.027,-0.003l0,0.007l-0.003,0.048l-0.003,0.052l-0.002,0.055l-0.001,0.058l0,0.066l0,5.286l0,0.068l0.001,0.062l0.002,0.063l0.003,0.062l0.004,0.062l0.004,0.061l0.005,0.061l0.006,0.061l0.006,0.06l0.008,0.061l0.008,0.061l0.008,0.059l0.01,0.059l0.01,0.061l0.011,0.059l0.012,0.058l0.012,0.059l0.013,0.058l0.014,0.058l0.015,0.058l0.015,0.057l0.015,0.057l0.017,0.057l0.017,0.057l0.018,0.057l0.019,0.055l0.019,0.056l0.02,0.056l0.021,0.055l0.021,0.054l0.022,0.055l0.022,0.054l0.023,0.054l0.024,0.053l0.024,0.053l0.025,0.053l0.026,0.052l0.026,0.052l0.027,0.052l0.028,0.052l0.028,0.05l0.028,0.051l0.03,0.05l0.03,0.051l0.03,0.049l0.031,0.049l0.032,0.049l0.032,0.048l0.033,0.048l0.033,0.047l0.034,0.048l0.035,0.046l0.034,0.046l0.036,0.046l0.037,0.046l0.036,0.044l0.037,0.045l0.038,0.044l0.038,0.044l0.039,0.043l0.039,0.042l0.04,0.042l0.04,0.042l0.041,0.041l0.041,0.041l0.042,0.041l0.042,0.039l0.042,0.039l0.043,0.039l0.045,0.039l0.044,0.037l0.043,0.037l0.046,0.037l0.045,0.036l0.046,0.036l0.046,0.034l0.047,0.035l0.047,0.034l0.047,0.033l0.048,0.033l0.049,0.032l0.048,0.032l0.049,0.031l0.05,0.031l0.05,0.03l0.05,0.028l0.05,0.029l0.052,0.028l0.051,0.028l0.052,0.027l0.052,0.026l0.052,0.026l0.053,0.025l0.053,0.024l0.053,0.024l0.055,0.023l0.054,0.023l0.053,0.021l0.056,0.022l0.055,0.02l0.055,0.02l0.056,0.019l0.056,0.019l0.056,0.018l0.057,0.017l0.057,0.017l0.057,0.016l0.057,0.015l0.058,0.014l0.058,0.014l0.058,0.013l0.059,0.012l0.059,0.012l0.059,0.011l0.06,0.01l0.06,0.01l0.059,0.008l0.06,0.008l0.061,0.008l0.06,0.006l0.061,0.006l0.061,0.005l0.062,0.005l0.062,0.003l0.061,0.003l0.063,0.002l0.062,0.001l0.068,0l14.272,0l0.068,0l0.063,-0.001l0.062,-0.002l0.061,-0.003l0.062,-0.003l0.062,-0.005l0.061,-0.005l0.061,-0.006l0.06,-0.006l0.061,-0.008l0.06,-0.008l0.06,-0.008l0.059,-0.01l0.06,-0.01l0.059,-0.011l0.059,-0.012l0.059,-0.012l0.058,-0.013l0.058,-0.014l0.058,-0.014l0.057,-0.015l0.057,-0.016l0.058,-0.017l0.056,-0.017l0.056,-0.018l0.056,-0.019l0.056,-0.019l0.055,-0.02l0.056,-0.02l0.055,-0.022l0.053,-0.021l0.054,-0.023l0.055,-0.023l0.053,-0.024l0.053,-0.024l0.053,-0.025l0.052,-0.026l0.052,-0.026l0.052,-0.027l0.052,-0.028l0.051,-0.028l0.05,-0.029l0.05,-0.028l0.05,-0.03l0.05,-0.031l0.049,-0.031l0.048,-0.032l0.049,-0.032l0.048,-0.033l0.047,-0.033l0.048,-0.034l0.046,-0.035l0.046,-0.034l0.046,-0.036l0.045,-0.036l0.046,-0.037l0.044,-0.037l0.043,-0.037l0.045,-0.039l0.043,-0.039l0.042,-0.039l0.042,-0.039l0.042,-0.041l0.041,-0.041l0.041,-0.041l0.04,-0.042l0.04,-0.042l0.039,-0.042l0.039,-0.044l0.038,-0.043l0.038,-0.044l0.038,-0.045l0.035,-0.044l0.037,-0.046l0.036,-0.046l0.034,-0.046l0.035,-0.046l0.034,-0.048l0.033,-0.047l0.033,-0.048l0.032,-0.048l0.032,-0.049l0.031,-0.049l0.03,-0.049l0.03,-0.051l0.03,-0.05l0.028,-0.051l0.028,-0.05l0.028,-0.052l0.027,-0.052l0.026,-0.052l0.026,-0.052l0.025,-0.053l0.024,-0.053l0.024,-0.053l0.023,-0.054l0.023,-0.054l0.022,-0.055l0.021,-0.054l0.02,-0.055l0.02,-0.056l0.019,-0.056l0.019,-0.055l0.018,-0.057l0.017,-0.057l0.017,-0.057l0.015,-0.057l0.016,-0.057l0.014,-0.058l0.014,-0.058l0.013,-0.058l0.012,-0.059l0.012,-0.058l0.011,-0.059l0.01,-0.061l0.01,-0.059l0.008,-0.059l0.008,-0.061l0.008,-0.061l0.006,-0.06l0.006,-0.061l0.005,-0.061l0.004,-0.061l0.004,-0.062l0.003,-0.062l0.002,-0.063l0.001,-0.062l0,-0.068l0,-5.286l0,-0.066l-0.001,-0.058l-0.002,-0.055l-0.003,-0.052l-0.003,-0.048l0,-0.007l-0.027,0.003Z" style="fill:#fff;"/></g></g><rect x="112.265" y="112.336" width="61.235" height="6.962" style="fill:#fff;"/><path d="M215.871,7.602l0.128,0.003l0.127,0.004l0.126,0.005l0.126,0.008l0.125,0.008l0.126,0.011l0.124,0.012l0.125,0.013l0.123,0.015l0.125,0.016l0.124,0.019l0.121,0.019l0.123,0.021l0.122,0.023l0.122,0.024l0.121,0.025l0.12,0.027l0.12,0.029l0.119,0.03l0.12,0.031l0.117,0.033l0.117,0.034l0.118,0.036l0.117,0.037l0.115,0.038l0.114,0.04l0.116,0.041l0.113,0.042l0.112,0.043l0.113,0.046l0.113,0.047l0.111,0.048l0.11,0.049l0.109,0.05l0.109,0.051l0.109,0.053l0.107,0.055l0.107,0.055l0.105,0.056l0.104,0.058l0.105,0.06l0.104,0.06l0.102,0.061l0.101,0.063l0.101,0.064l0.1,0.064l0.1,0.067l0.098,0.067l0.098,0.069l0.096,0.069l0.095,0.07l0.095,0.072l0.095,0.074l0.092,0.073l0.093,0.076l0.091,0.076l0.09,0.077l0.089,0.078l0.088,0.079l0.087,0.08l0.087,0.082l0.085,0.082l0.085,0.084l0.084,0.084l0.082,0.085l0.081,0.087l0.08,0.087l0.079,0.088l0.079,0.09l0.077,0.09l0.076,0.091l0.075,0.092l0.074,0.093l0.073,0.094l0.071,0.094l0.071,0.096l0.07,0.098l0.069,0.097l0.066,0.097l0.067,0.1l0.065,0.1l0.063,0.1l0.063,0.102l0.062,0.103l0.06,0.103l0.059,0.105l0.058,0.105l0.057,0.106l0.055,0.105l0.054,0.108l0.053,0.108l0.052,0.109l0.05,0.11l0.049,0.11l0.048,0.11l0.046,0.113l0.045,0.112l0.044,0.114l0.043,0.113l0.04,0.114l0.041,0.116l0.038,0.116l0.037,0.116l0.035,0.115l0.035,0.119l0.033,0.119l0.03,0.117l0.031,0.12l0.028,0.12l0.027,0.121l0.026,0.121l0.024,0.121l0.022,0.123l0.021,0.122l0.02,0.121l0.018,0.123l0.016,0.125l0.015,0.124l0.014,0.125l0.012,0.125l0.01,0.125l0.009,0.126l0.007,0.127l0.006,0.125l0.004,0.126l0.002,0.128l0.001,0.116l0,53.423l-6.963,0l0,-53.402l0,-0.05l-0.001,-0.038l-0.001,-0.038l-0.002,-0.04l-0.002,-0.037l-0.002,-0.037l-0.003,-0.038l-0.004,-0.038l-0.004,-0.037l-0.004,-0.036l-0.005,-0.037l-0.006,-0.036l-0.006,-0.038l-0.006,-0.036l-0.006,-0.036l-0.008,-0.036l-0.007,-0.035l-0.008,-0.035l-0.008,-0.035l-0.009,-0.035l-0.01,-0.037l-0.009,-0.034l-0.01,-0.033l-0.011,-0.035l-0.011,-0.035l-0.011,-0.034l-0.011,-0.033l-0.013,-0.034l-0.012,-0.034l-0.013,-0.032l-0.013,-0.034l-0.014,-0.032l-0.014,-0.033l-0.015,-0.033l-0.014,-0.032l-0.015,-0.032l-0.016,-0.032l-0.016,-0.031l-0.017,-0.033l-0.017,-0.032l-0.016,-0.03l-0.018,-0.031l-0.018,-0.031l-0.018,-0.03l-0.018,-0.029l-0.02,-0.032l-0.019,-0.029l-0.019,-0.029l-0.021,-0.03l-0.021,-0.03l-0.02,-0.028l-0.02,-0.028l-0.023,-0.029l-0.022,-0.029l-0.022,-0.027l-0.022,-0.027l-0.023,-0.028l-0.023,-0.027l-0.023,-0.026l-0.024,-0.027l-0.024,-0.026l-0.025,-0.026l-0.025,-0.026l-0.025,-0.025l-0.024,-0.025l-0.026,-0.025l-0.026,-0.024l-0.026,-0.024l-0.027,-0.024l-0.027,-0.024l-0.028,-0.023l-0.026,-0.023l-0.028,-0.022l-0.028,-0.022l-0.027,-0.022l-0.028,-0.021l-0.03,-0.022l-0.029,-0.021l-0.029,-0.02l-0.029,-0.02l-0.029,-0.019l-0.03,-0.02l-0.03,-0.019l-0.031,-0.019l-0.031,-0.018l-0.03,-0.018l-0.03,-0.017l-0.032,-0.017l-0.032,-0.017l-0.031,-0.017l-0.032,-0.016l-0.031,-0.015l-0.032,-0.015l-0.033,-0.016l-0.033,-0.014l-0.032,-0.014l-0.032,-0.013l-0.032,-0.013l-0.035,-0.014l-0.035,-0.012l-0.032,-0.012l-0.034,-0.012l-0.034,-0.011l-0.034,-0.011l-0.034,-0.01l-0.035,-0.011l-0.035,-0.009l-0.034,-0.009l-0.036,-0.009l-0.035,-0.009l-0.036,-0.008l-0.036,-0.007l-0.035,-0.007l-0.035,-0.007l-0.036,-0.006l-0.038,-0.006l-0.036,-0.005l-0.036,-0.005l-0.038,-0.004l-0.037,-0.004l-0.037,-0.004l-0.038,-0.003l-0.039,-0.003l-0.037,-0.002l-0.038,-0.002l-0.039,-0.001l-0.038,-0.001l-0.05,0l-147.797,0l-0.05,0l-0.037,0.001l-0.039,0.001l-0.038,0.002l-0.038,0.002l-0.038,0.003l-0.038,0.003l-0.038,0.004l-0.037,0.004l-0.038,0.004l-0.036,0.005l-0.035,0.005l-0.038,0.006l-0.036,0.006l-0.036,0.007l-0.035,0.007l-0.036,0.007l-0.035,0.008l-0.035,0.009l-0.036,0.009l-0.034,0.009l-0.035,0.009l-0.035,0.011l-0.034,0.01l-0.034,0.011l-0.034,0.011l-0.035,0.012l-0.032,0.012l-0.035,0.012l-0.034,0.014l-0.032,0.013l-0.032,0.013l-0.032,0.014l-0.033,0.014l-0.034,0.016l-0.032,0.015l-0.031,0.015l-0.032,0.016l-0.031,0.017l-0.032,0.017l-0.031,0.017l-0.031,0.017l-0.029,0.018l-0.032,0.019l-0.031,0.019l-0.029,0.018l-0.03,0.019l-0.03,0.02l-0.029,0.02l-0.028,0.02l-0.03,0.022l-0.029,0.021l-0.027,0.021l-0.029,0.022l-0.028,0.022l-0.027,0.022l-0.027,0.023l-0.027,0.023l-0.028,0.024l-0.026,0.024l-0.026,0.024l-0.026,0.024l-0.026,0.025l-0.025,0.025l-0.024,0.025l-0.026,0.026l-0.024,0.026l-0.025,0.026l-0.023,0.027l-0.023,0.026l-0.023,0.027l-0.024,0.028l-0.022,0.027l-0.022,0.027l-0.022,0.029l-0.022,0.029l-0.021,0.028l-0.02,0.028l-0.02,0.03l-0.021,0.03l-0.019,0.029l-0.02,0.029l-0.019,0.032l-0.019,0.029l-0.018,0.03l-0.018,0.031l-0.017,0.031l-0.017,0.03l-0.017,0.032l-0.017,0.033l-0.016,0.031l-0.015,0.032l-0.015,0.032l-0.015,0.032l-0.015,0.033l-0.014,0.033l-0.013,0.032l-0.014,0.034l-0.013,0.033l-0.012,0.033l-0.012,0.033l-0.012,0.034l-0.011,0.035l-0.011,0.034l-0.01,0.034l-0.01,0.034l-0.01,0.034l-0.009,0.037l-0.009,0.035l-0.008,0.035l-0.008,0.035l-0.008,0.035l-0.007,0.036l-0.007,0.037l-0.006,0.036l-0.006,0.035l-0.005,0.037l-0.005,0.038l-0.004,0.036l-0.004,0.037l-0.004,0.038l-0.003,0.038l-0.003,0.037l-0.002,0.037l-0.001,0.04l-0.002,0.038l0,0.039l-0.001,0.051l0,59.082l-6.962,0l0,-59.106l0.001,-0.116l0.002,-0.127l0.004,-0.126l0.006,-0.125l0.007,-0.127l0.009,-0.126l0.01,-0.125l0.012,-0.125l0.013,-0.125l0.015,-0.124l0.017,-0.123l0.018,-0.123l0.019,-0.124l0.021,-0.123l0.023,-0.121l0.024,-0.121l0.026,-0.121l0.027,-0.121l0.028,-0.12l0.03,-0.12l0.031,-0.117l0.033,-0.119l0.034,-0.117l0.036,-0.117l0.037,-0.117l0.038,-0.115l0.04,-0.115l0.041,-0.115l0.043,-0.115l0.043,-0.112l0.045,-0.112l0.047,-0.113l0.048,-0.11l0.048,-0.11l0.051,-0.11l0.052,-0.109l0.053,-0.108l0.054,-0.108l0.055,-0.105l0.056,-0.106l0.059,-0.105l0.059,-0.105l0.06,-0.103l0.062,-0.103l0.063,-0.102l0.063,-0.1l0.065,-0.1l0.066,-0.1l0.067,-0.097l0.068,-0.097l0.07,-0.098l0.072,-0.096l0.071,-0.094l0.072,-0.094l0.075,-0.093l0.075,-0.092l0.076,-0.091l0.077,-0.09l0.078,-0.09l0.08,-0.088l0.08,-0.087l0.081,-0.087l0.082,-0.085l0.084,-0.084l0.085,-0.084l0.085,-0.082l0.086,-0.081l0.087,-0.081l0.089,-0.08l0.088,-0.077l0.09,-0.077l0.092,-0.076l0.092,-0.076l0.093,-0.073l0.094,-0.073l0.095,-0.073l0.096,-0.07l0.095,-0.069l0.098,-0.069l0.099,-0.067l0.099,-0.066l0.1,-0.065l0.102,-0.065l0.101,-0.062l0.101,-0.061l0.104,-0.06l0.105,-0.06l0.105,-0.058l0.105,-0.056l0.107,-0.055l0.107,-0.055l0.109,-0.053l0.109,-0.051l0.108,-0.05l0.11,-0.049l0.112,-0.048l0.112,-0.047l0.113,-0.045l0.113,-0.044l0.113,-0.042l0.115,-0.041l0.115,-0.04l0.115,-0.038l0.117,-0.037l0.117,-0.036l0.117,-0.034l0.118,-0.033l0.12,-0.031l0.118,-0.03l0.12,-0.029l0.12,-0.027l0.121,-0.025l0.122,-0.024l0.123,-0.023l0.122,-0.021l0.122,-0.019l0.124,-0.019l0.124,-0.016l0.124,-0.015l0.124,-0.013l0.125,-0.012l0.125,-0.011l0.125,-0.008l0.126,-0.008l0.127,-0.005l0.127,-0.004l0.127,-0.003l0.116,0l147.839,0l0.116,0Z" style="fill:#fff;"/></g><g id="laptop"><g><path d="M121.5,163.376c0,3.06 -2.481,5.541 -5.541,5.541l-99.153,0c-3.06,0 -5.541,-2.481 -5.541,-5.541l9.235,-24.126c0,-3.06 2.481,-5.541 5.541,-5.541l80.683,0c3.06,0 5.541,2.481 5.541,5.541l9.235,24.126Z" style="fill:#fff;fill-rule:nonzero;"/><path d="M106.813,132.324l0.089,0.001l0.089,0.003l0.088,0.004l0.088,0.005l0.088,0.006l0.087,0.008l0.088,0.008l0.087,0.009l0.086,0.011l0.087,0.011l0.086,0.013l0.087,0.014l0.085,0.014l0.085,0.016l0.086,0.017l0.084,0.018l0.083,0.019l0.084,0.019l0.084,0.021l0.082,0.022l0.083,0.023l0.082,0.024l0.082,0.025l0.081,0.026l0.081,0.027l0.081,0.027l0.08,0.029l0.078,0.029l0.079,0.031l0.079,0.032l0.077,0.032l0.078,0.033l0.077,0.035l0.077,0.035l0.076,0.036l0.075,0.037l0.076,0.038l0.074,0.039l0.074,0.039l0.073,0.04l0.073,0.042l0.073,0.042l0.071,0.043l0.071,0.043l0.071,0.045l0.07,0.046l0.07,0.047l0.068,0.046l0.068,0.048l0.068,0.049l0.067,0.049l0.066,0.05l0.065,0.051l0.065,0.052l0.065,0.052l0.064,0.054l0.063,0.054l0.062,0.055l0.062,0.055l0.061,0.056l0.061,0.058l0.059,0.056l0.059,0.059l0.059,0.059l0.057,0.059l0.057,0.061l0.057,0.062l0.055,0.061l0.054,0.062l0.054,0.063l0.054,0.064l0.053,0.065l0.051,0.065l0.051,0.065l0.05,0.067l0.049,0.066l0.05,0.069l0.047,0.068l0.047,0.067l0.046,0.07l0.046,0.07l0.044,0.071l0.045,0.071l0.043,0.072l0.042,0.072l0.041,0.073l0.04,0.073l0.04,0.074l0.038,0.074l0.038,0.076l0.037,0.075l0.036,0.076l0.036,0.077l0.034,0.077l0.033,0.078l0.032,0.077l0.032,0.079l0.031,0.079l0.029,0.079l0.029,0.08l0.028,0.08l0.027,0.081l0.025,0.082l0.025,0.081l0.024,0.083l0.023,0.082l0.022,0.083l0.021,0.083l0.02,0.084l0.018,0.083l0.018,0.085l0.017,0.085l0.016,0.085l0.015,0.085l0.013,0.087l0.013,0.086l0.012,0.087l0.01,0.086l0.009,0.087l0.009,0.088l0.007,0.088l0.006,0.087l0.005,0.088l0.004,0.086l9.242,24.144l-0.002,0.341l-0.002,0.089l-0.003,0.089l-0.004,0.089l-0.005,0.088l-0.006,0.087l-0.007,0.088l-0.008,0.088l-0.01,0.087l-0.01,0.086l-0.012,0.087l-0.012,0.086l-0.014,0.085l-0.015,0.087l-0.016,0.084l-0.016,0.086l-0.018,0.084l-0.019,0.084l-0.02,0.084l-0.021,0.083l-0.022,0.083l-0.022,0.082l-0.024,0.083l-0.025,0.081l-0.026,0.081l-0.027,0.082l-0.028,0.08l-0.029,0.08l-0.029,0.079l-0.031,0.079l-0.031,0.079l-0.032,0.077l-0.034,0.077l-0.034,0.079l-0.036,0.076l-0.035,0.075l-0.037,0.076l-0.038,0.075l-0.039,0.074l-0.039,0.074l-0.041,0.074l-0.041,0.072l-0.043,0.073l-0.042,0.071l-0.044,0.071l-0.045,0.071l-0.045,0.07l-0.047,0.07l-0.047,0.068l-0.047,0.069l-0.049,0.067l-0.049,0.067l-0.051,0.066l-0.051,0.066l-0.051,0.065l-0.053,0.065l-0.053,0.063l-0.054,0.063l-0.055,0.063l-0.055,0.061l-0.057,0.062l-0.057,0.06l-0.057,0.06l-0.058,0.058l-0.059,0.059l-0.061,0.058l-0.06,0.057l-0.06,0.055l-0.062,0.056l-0.063,0.055l-0.063,0.054l-0.064,0.053l-0.065,0.053l-0.065,0.052l-0.065,0.05l-0.066,0.05l-0.067,0.05l-0.068,0.049l-0.068,0.048l-0.069,0.047l-0.069,0.046l-0.07,0.045l-0.07,0.045l-0.071,0.044l-0.073,0.043l-0.071,0.042l-0.073,0.041l-0.074,0.041l-0.073,0.039l-0.075,0.039l-0.075,0.038l-0.075,0.037l-0.077,0.036l-0.077,0.035l-0.076,0.034l-0.077,0.033l-0.079,0.033l-0.078,0.032l-0.079,0.03l-0.08,0.03l-0.08,0.029l-0.08,0.027l-0.081,0.027l-0.081,0.026l-0.082,0.025l-0.082,0.024l-0.082,0.022l-0.083,0.022l-0.083,0.021l-0.085,0.02l-0.084,0.019l-0.083,0.018l-0.086,0.017l-0.085,0.015l-0.085,0.015l-0.086,0.014l-0.087,0.012l-0.085,0.012l-0.087,0.01l-0.088,0.01l-0.087,0.008l-0.087,0.007l-0.089,0.007l-0.088,0.005l-0.089,0.003l-0.088,0.003l-0.089,0.002l-0.085,0l-99.161,0l-0.085,0l-0.089,-0.002l-0.088,-0.003l-0.089,-0.003l-0.089,-0.006l-0.088,-0.006l-0.087,-0.007l-0.087,-0.008l-0.088,-0.01l-0.087,-0.01l-0.086,-0.012l-0.086,-0.012l-0.086,-0.014l-0.085,-0.015l-0.085,-0.015l-0.086,-0.017l-0.084,-0.018l-0.084,-0.019l-0.084,-0.02l-0.083,-0.021l-0.083,-0.022l-0.082,-0.022l-0.083,-0.024l-0.081,-0.025l-0.081,-0.026l-0.081,-0.027l-0.08,-0.027l-0.08,-0.029l-0.08,-0.03l-0.079,-0.03l-0.078,-0.032l-0.079,-0.033l-0.077,-0.033l-0.077,-0.034l-0.076,-0.035l-0.077,-0.036l-0.075,-0.037l-0.075,-0.038l-0.075,-0.039l-0.074,-0.039l-0.073,-0.041l-0.073,-0.041l-0.072,-0.042l-0.072,-0.043l-0.071,-0.044l-0.07,-0.045l-0.07,-0.045l-0.069,-0.046l-0.069,-0.047l-0.068,-0.048l-0.068,-0.049l-0.067,-0.05l-0.066,-0.05l-0.066,-0.05l-0.065,-0.052l-0.064,-0.053l-0.064,-0.053l-0.063,-0.054l-0.063,-0.055l-0.062,-0.055l-0.061,-0.056l-0.06,-0.057l-0.06,-0.058l-0.059,-0.059l-0.058,-0.058l-0.057,-0.06l-0.058,-0.06l-0.056,-0.062l-0.055,-0.061l-0.055,-0.063l-0.054,-0.063l-0.053,-0.064l-0.053,-0.064l-0.051,-0.065l-0.052,-0.066l-0.05,-0.066l-0.049,-0.067l-0.049,-0.067l-0.048,-0.069l-0.047,-0.068l-0.046,-0.07l-0.045,-0.07l-0.045,-0.07l-0.044,-0.071l-0.043,-0.072l-0.042,-0.072l-0.041,-0.073l-0.041,-0.074l-0.039,-0.074l-0.039,-0.074l-0.038,-0.075l-0.037,-0.075l-0.036,-0.076l-0.035,-0.077l-0.034,-0.077l-0.034,-0.078l-0.032,-0.077l-0.031,-0.079l-0.031,-0.079l-0.03,-0.08l-0.028,-0.079l-0.028,-0.081l-0.027,-0.081l-0.026,-0.081l-0.025,-0.082l-0.023,-0.081l-0.023,-0.083l-0.022,-0.083l-0.021,-0.083l-0.02,-0.084l-0.019,-0.084l-0.018,-0.085l-0.017,-0.085l-0.015,-0.084l-0.015,-0.086l-0.014,-0.086l-0.012,-0.086l-0.012,-0.087l-0.01,-0.086l-0.01,-0.088l-0.008,-0.087l-0.007,-0.087l-0.006,-0.088l-0.006,-0.089l-0.003,-0.088l-0.003,-0.089l-0.002,-0.089l-0.002,-0.341l9.242,-24.144l0.004,-0.086l0.005,-0.088l0.006,-0.087l0.007,-0.088l0.009,-0.088l0.009,-0.087l0.01,-0.087l0.012,-0.086l0.012,-0.086l0.014,-0.087l0.015,-0.085l0.016,-0.085l0.017,-0.085l0.017,-0.084l0.019,-0.084l0.02,-0.084l0.021,-0.083l0.022,-0.083l0.023,-0.083l0.023,-0.081l0.025,-0.082l0.026,-0.082l0.027,-0.081l0.028,-0.08l0.029,-0.08l0.029,-0.079l0.031,-0.079l0.031,-0.079l0.033,-0.078l0.033,-0.077l0.034,-0.077l0.035,-0.077l0.037,-0.076l0.036,-0.075l0.038,-0.075l0.039,-0.075l0.04,-0.074l0.04,-0.073l0.041,-0.073l0.042,-0.072l0.043,-0.072l0.044,-0.071l0.045,-0.071l0.045,-0.07l0.047,-0.069l0.046,-0.068l0.048,-0.068l0.049,-0.069l0.05,-0.066l0.05,-0.066l0.051,-0.066l0.051,-0.065l0.053,-0.065l0.054,-0.064l0.053,-0.062l0.055,-0.063l0.055,-0.061l0.057,-0.062l0.057,-0.06l0.057,-0.06l0.059,-0.059l0.059,-0.058l0.059,-0.057l0.061,-0.058l0.061,-0.056l0.062,-0.055l0.062,-0.055l0.063,-0.054l0.064,-0.054l0.064,-0.052l0.065,-0.052l0.066,-0.051l0.066,-0.05l0.067,-0.049l0.068,-0.049l0.068,-0.048l0.068,-0.047l0.07,-0.046l0.07,-0.046l0.071,-0.045l0.071,-0.043l0.071,-0.043l0.073,-0.042l0.072,-0.041l0.074,-0.041l0.073,-0.039l0.075,-0.039l0.075,-0.038l0.075,-0.037l0.077,-0.036l0.077,-0.035l0.077,-0.035l0.077,-0.033l0.077,-0.032l0.079,-0.032l0.08,-0.031l0.078,-0.029l0.08,-0.029l0.081,-0.027l0.081,-0.027l0.081,-0.026l0.082,-0.025l0.082,-0.024l0.082,-0.023l0.083,-0.022l0.084,-0.021l0.084,-0.019l0.083,-0.019l0.084,-0.018l0.086,-0.017l0.085,-0.016l0.085,-0.014l0.086,-0.014l0.087,-0.013l0.086,-0.011l0.086,-0.011l0.088,-0.009l0.088,-0.008l0.087,-0.008l0.088,-0.006l0.087,-0.005l0.089,-0.004l0.089,-0.003l0.089,-0.001l0.085,-0.001l80.691,0l0.085,0.001ZM26.045,135.094l-0.058,0l-0.054,0.001l-0.053,0.002l-0.053,0.002l-0.054,0.003l-0.053,0.004l-0.053,0.004l-0.052,0.005l-0.052,0.006l-0.053,0.006l-0.052,0.007l-0.051,0.008l-0.051,0.008l-0.052,0.009l-0.051,0.009l-0.05,0.01l-0.051,0.011l-0.051,0.011l-0.05,0.012l-0.049,0.013l-0.05,0.013l-0.05,0.014l-0.048,0.014l-0.049,0.014l-0.049,0.016l-0.048,0.016l-0.048,0.016l-0.047,0.017l-0.049,0.019l-0.046,0.018l-0.047,0.018l-0.047,0.02l-0.046,0.02l-0.047,0.021l-0.045,0.02l-0.045,0.022l-0.046,0.022l-0.045,0.023l-0.044,0.023l-0.045,0.024l-0.044,0.024l-0.044,0.025l-0.042,0.025l-0.044,0.026l-0.043,0.026l-0.041,0.027l-0.043,0.027l-0.041,0.027l-0.042,0.029l-0.041,0.029l-0.04,0.029l-0.04,0.03l-0.04,0.03l-0.04,0.031l-0.039,0.031l-0.039,0.032l-0.038,0.031l-0.038,0.033l-0.037,0.033l-0.038,0.034l-0.036,0.033l-0.036,0.034l-0.037,0.035l-0.035,0.035l-0.035,0.035l-0.035,0.037l-0.034,0.036l-0.034,0.037l-0.034,0.037l-0.032,0.037l-0.033,0.039l-0.032,0.038l-0.032,0.039l-0.031,0.039l-0.03,0.039l-0.031,0.04l-0.029,0.041l-0.029,0.04l-0.029,0.041l-0.029,0.042l-0.027,0.041l-0.028,0.042l-0.026,0.042l-0.027,0.043l-0.026,0.043l-0.025,0.043l-0.024,0.044l-0.025,0.044l-0.024,0.044l-0.023,0.045l-0.022,0.044l-0.023,0.046l-0.021,0.045l-0.021,0.046l-0.021,0.046l-0.02,0.047l-0.019,0.046l-0.019,0.047l-0.018,0.047l-0.018,0.048l-0.017,0.048l-0.017,0.048l-0.016,0.048l-0.015,0.048l-0.015,0.049l-0.014,0.049l-0.014,0.05l-0.013,0.049l-0.012,0.05l-0.012,0.05l-0.011,0.05l-0.011,0.051l-0.01,0.05l-0.01,0.052l-0.008,0.051l-0.009,0.051l-0.007,0.052l-0.007,0.052l-0.006,0.052l-0.006,0.052l-0.005,0.053l-0.004,0.052l-0.004,0.054l-0.003,0.053l-0.003,0.053l-0.001,0.054l-0.001,0.054l-0.002,0.314l-9.227,24.104l0.002,0.03l0.003,0.053l0.005,0.053l0.005,0.053l0.005,0.052l0.007,0.052l0.007,0.052l0.007,0.052l0.008,0.051l0.009,0.051l0.01,0.051l0.01,0.051l0.01,0.05l0.011,0.051l0.012,0.05l0.013,0.05l0.013,0.049l0.014,0.049l0.014,0.05l0.015,0.048l0.015,0.049l0.016,0.048l0.017,0.048l0.017,0.048l0.018,0.047l0.018,0.047l0.019,0.047l0.019,0.047l0.02,0.047l0.021,0.045l0.021,0.046l0.021,0.046l0.022,0.045l0.023,0.045l0.023,0.045l0.024,0.044l0.024,0.044l0.025,0.044l0.025,0.043l0.026,0.043l0.026,0.043l0.027,0.042l0.027,0.042l0.028,0.042l0.028,0.041l0.029,0.041l0.029,0.04l0.03,0.041l0.03,0.04l0.031,0.039l0.031,0.039l0.032,0.039l0.032,0.038l0.032,0.038l0.033,0.038l0.034,0.037l0.033,0.037l0.034,0.036l0.035,0.036l0.036,0.036l0.035,0.035l0.036,0.034l0.036,0.035l0.037,0.034l0.037,0.033l0.038,0.033l0.038,0.032l0.038,0.032l0.039,0.032l0.039,0.031l0.039,0.031l0.041,0.03l0.04,0.03l0.04,0.029l0.041,0.029l0.041,0.028l0.042,0.028l0.042,0.027l0.043,0.027l0.042,0.026l0.043,0.026l0.044,0.025l0.043,0.025l0.044,0.024l0.045,0.024l0.044,0.023l0.045,0.023l0.045,0.022l0.046,0.021l0.045,0.021l0.047,0.021l0.046,0.02l0.046,0.019l0.047,0.019l0.048,0.018l0.047,0.018l0.047,0.017l0.049,0.017l0.048,0.016l0.049,0.015l0.049,0.015l0.048,0.014l0.05,0.014l0.05,0.013l0.05,0.013l0.049,0.011l0.05,0.012l0.052,0.011l0.05,0.009l0.051,0.01l0.051,0.009l0.051,0.008l0.052,0.007l0.052,0.007l0.052,0.007l0.052,0.005l0.053,0.005l0.053,0.005l0.053,0.003l0.053,0.003l0.053,0.003l0.054,0.001l0.054,0.002l0.058,0l99.145,0l0.058,0l0.054,-0.002l0.054,-0.001l0.053,-0.003l0.053,-0.003l0.052,-0.003l0.053,-0.005l0.054,-0.005l0.051,-0.005l0.053,-0.007l0.052,-0.007l0.051,-0.007l0.051,-0.008l0.052,-0.009l0.051,-0.01l0.05,-0.009l0.051,-0.011l0.051,-0.012l0.049,-0.011l0.05,-0.013l0.05,-0.013l0.05,-0.014l0.048,-0.014l0.049,-0.015l0.049,-0.015l0.048,-0.016l0.048,-0.017l0.048,-0.017l0.047,-0.018l0.047,-0.018l0.047,-0.019l0.046,-0.019l0.047,-0.02l0.047,-0.021l0.045,-0.021l0.045,-0.021l0.046,-0.022l0.045,-0.023l0.044,-0.023l0.045,-0.024l0.044,-0.024l0.043,-0.025l0.044,-0.025l0.042,-0.026l0.043,-0.026l0.043,-0.027l0.042,-0.027l0.041,-0.028l0.042,-0.029l0.041,-0.028l0.04,-0.029l0.04,-0.03l0.04,-0.03l0.04,-0.031l0.039,-0.031l0.039,-0.032l0.038,-0.032l0.038,-0.033l0.038,-0.032l0.036,-0.033l0.037,-0.034l0.037,-0.035l0.036,-0.034l0.035,-0.035l0.035,-0.036l0.036,-0.036l0.034,-0.036l0.033,-0.037l0.034,-0.037l0.033,-0.038l0.032,-0.038l0.032,-0.038l0.031,-0.039l0.032,-0.039l0.031,-0.04l0.029,-0.039l0.031,-0.041l0.029,-0.04l0.028,-0.041l0.029,-0.042l0.027,-0.041l0.028,-0.042l0.026,-0.042l0.027,-0.043l0.026,-0.044l0.025,-0.042l0.025,-0.044l0.024,-0.044l0.024,-0.044l0.023,-0.045l0.022,-0.045l0.022,-0.045l0.022,-0.046l0.021,-0.046l0.02,-0.045l0.02,-0.046l0.02,-0.048l0.019,-0.047l0.018,-0.046l0.018,-0.048l0.017,-0.048l0.017,-0.048l0.016,-0.048l0.015,-0.049l0.015,-0.049l0.014,-0.048l0.014,-0.05l0.013,-0.05l0.012,-0.049l0.012,-0.05l0.012,-0.051l0.01,-0.05l0.01,-0.051l0.01,-0.051l0.008,-0.05l0.009,-0.052l0.007,-0.053l0.007,-0.05l0.007,-0.053l0.005,-0.053l0.005,-0.052l0.004,-0.053l0.004,-0.053l0.002,-0.03l-9.227,-24.104l-0.002,-0.314l-0.001,-0.054l-0.002,-0.054l-0.002,-0.053l-0.003,-0.053l-0.004,-0.054l-0.004,-0.053l-0.005,-0.052l-0.006,-0.052l-0.006,-0.053l-0.007,-0.051l-0.008,-0.052l-0.008,-0.051l-0.009,-0.051l-0.009,-0.052l-0.01,-0.05l-0.011,-0.05l-0.011,-0.051l-0.012,-0.05l-0.012,-0.05l-0.013,-0.05l-0.014,-0.049l-0.014,-0.049l-0.015,-0.049l-0.016,-0.048l-0.016,-0.048l-0.016,-0.048l-0.017,-0.047l-0.018,-0.049l-0.018,-0.047l-0.019,-0.046l-0.02,-0.048l-0.02,-0.046l-0.02,-0.046l-0.021,-0.046l-0.022,-0.045l-0.022,-0.046l-0.022,-0.044l-0.024,-0.045l-0.023,-0.044l-0.025,-0.044l-0.025,-0.044l-0.025,-0.043l-0.026,-0.043l-0.026,-0.043l-0.026,-0.042l-0.028,-0.042l-0.027,-0.041l-0.029,-0.042l-0.029,-0.041l-0.029,-0.04l-0.03,-0.041l-0.03,-0.04l-0.031,-0.04l-0.031,-0.039l-0.031,-0.038l-0.032,-0.038l-0.033,-0.038l-0.033,-0.038l-0.033,-0.038l-0.034,-0.036l-0.034,-0.036l-0.035,-0.037l-0.035,-0.035l-0.035,-0.034l-0.037,-0.036l-0.036,-0.034l-0.036,-0.033l-0.038,-0.034l-0.038,-0.034l-0.038,-0.032l-0.037,-0.031l-0.039,-0.032l-0.039,-0.031l-0.04,-0.031l-0.04,-0.03l-0.04,-0.03l-0.04,-0.029l-0.041,-0.029l-0.043,-0.029l-0.041,-0.027l-0.042,-0.027l-0.042,-0.027l-0.042,-0.026l-0.044,-0.026l-0.043,-0.025l-0.043,-0.025l-0.045,-0.024l-0.044,-0.024l-0.045,-0.023l-0.044,-0.023l-0.046,-0.022l-0.045,-0.022l-0.046,-0.021l-0.046,-0.02l-0.046,-0.02l-0.048,-0.02l-0.046,-0.018l-0.046,-0.018l-0.049,-0.019l-0.048,-0.017l-0.047,-0.016l-0.049,-0.016l-0.048,-0.016l-0.049,-0.014l-0.049,-0.015l-0.049,-0.013l-0.05,-0.013l-0.049,-0.013l-0.05,-0.012l-0.052,-0.011l-0.05,-0.011l-0.05,-0.01l-0.051,-0.009l-0.052,-0.009l-0.051,-0.008l-0.051,-0.008l-0.052,-0.007l-0.053,-0.006l-0.052,-0.006l-0.052,-0.005l-0.053,-0.004l-0.053,-0.004l-0.054,-0.003l-0.053,-0.002l-0.054,-0.002l-0.053,-0.001l-0.059,0l-80.674,0Z" style="fill:#fff;"/></g><path d="M112.265,127.974c0,3.06 -2.481,5.541 -5.541,5.541l-80.683,0c-3.06,0 -5.541,-2.481 -5.541,-5.541l0,-45.829c0,-3.06 2.481,-5.541 5.541,-5.541l80.683,0c3.06,0 5.541,2.481 5.541,5.541l0,45.829Z" style="fill:none;stroke-width:2.5px;stroke:#fff;"/></g><path id="tablet" d="M214.43,155.39l-34.908,0c-3.326,0 -6.022,-2.996 -6.022,-6.691l0,-71.086c0,-3.696 2.696,-6.691 6.022,-6.691l55.835,0c3.326,0 6.022,2.995 6.022,6.691l0,23.962" style="fill:none;stroke-width:2.5px;stroke:#fff;"/><path id="phone" d="M250.264,155.915c0,4.617 -3.743,8.361 -8.36,8.361l-19.114,0c-4.617,0 -8.36,-3.744 -8.36,-8.361l0,-45.979c0,-4.617 3.743,-8.361 8.36,-8.361l19.114,0c4.617,0 8.361,3.744 8.361,8.361l0,45.979l-0.001,0Z" style="fill:none;stroke-width:2.5px;stroke:#fff;"/></g></svg>